/* XPM */
static char *f5d7170c24b94d67bba77bcd1807c13fLnXayjWkA0JW9RNs[] = {
/* columns rows colors chars-per-pixel */
"128 128 18 1 ",
"  c None",
". c #C0C0C0",
"X c gray77",
"o c #C8C8C8",
"O c gray80",
"+ c #D0D0D0",
"@ c gray83",
"# c #D8D8D8",
"$ c gainsboro",
"% c gray88",
"& c gray89",
"* c #E7E7E7",
"= c gray92",
"- c #EFEFEF",
"; c #F3F3F3",
": c gray97",
"> c #FBFBFB",
", c white",
/* pixels */
"                                                                                                                                ",
"                                                                                                                                ",
"                                                                                                                                ",
"                                                                                                                                ",
"                                                                                                                                ",
"                                                                                                                                ",
"                                                          .............                                                         ",
"                                                    .........................                                                   ",
"                                                 ................................                                               ",
"                                             .......................................                                            ",
"                                           ............................................                                         ",
"                                        .................................................                                       ",
"                                      .....................................................                                     ",
"                                    .........................................................                                   ",
"                                   ............................................................                                 ",
"                                 ...............................................................                                ",
"                                ..................................................................                              ",
"                              .....................................................................                             ",
"                             .......................................................................                            ",
"                            ..........................................................................                          ",
"                           ............................................................................                         ",
"                         ...............................................................................                        ",
"                        .................................................................................                       ",
"                       ...................................................................................                      ",
"                      .....................................................................................                     ",
"                      ......................................................................................                    ",
"                     .........................................&#o............................................                   ",
"                    .........................................o,,,:*#o.........................................                  ",
"                   ..........................................#,,,,,,=.........................................                  ",
"                  ...........................................*,,,,,,$....#*#o..................................                 ",
"                 ............................................:,,,,,,O....-,,,:*#X...............................                ",
"                 ...........................................o,,,,,,>.....,,,,,,,X................................               ",
"                ............................................#,,,,,,=....+,,,,,,;.................................               ",
"               ...............................o+............*,,,,,,$....&,,,,,,&..................................              ",
"               ...............................$,,-&+........:,,,,,,O....-,,,,,,@..................................              ",
"              ................................=,,,,,,-&+...o,,,,,,>.....,,,,,,,X...................................             ",
"              ................................>,,,,,,,,,,-&&,,,,,,=....+,,,,,,;.....................................            ",
"             ................................O,,,,,,,,,,,,,,,,,,,,$....&,,,,,,&.....................................            ",
"             ................................$,,,,,,,,,,,,,,,,,,,,;&@X.-,,,,,,@......................................           ",
"            .................................=,,,,,,,,,,,,,,,,,,,,,,,,:,,,,,,,X......................................           ",
"            .................................=,,,,,,,,,,,,,,,,,,,,,,,,,,,,,,,;........................................          ",
"           ....................................+&=,,,,,,,,,,,,,,,,,,,,,,,,,,,>$o......................................          ",
"           .......................................X*,,,,,,,,,,,,,,,,,,,,,,,,,,,,*+....................................          ",
"           .........................................-,,,,,,,,,,,,,,,,,,,,,,,,,,,,,-+...................................         ",
"          ..........................................#,,,,,,,,,,,,,,,,,,,,,,,,,,,,,,,&X.................................         ",
"          ..........................................#,,,,,,,,,,,,,,,,,,,,,,,,,,,,,,,,:O................................         ",
"          ..........................................*,,,,,,,,,,,#O#*:,,,,,,,,,,,,,,,,,>O................................        ",
"         ...........................................:,,,,,,,,,,,o....O$:,,,,,,,,,,,,,,,>O...............................        ",
"         ..........................................o,,,,,,,,,,,:........+-,,,,,,,,,,,,,,;...............................        ",
"         ..........................................#,,,,,,,,,,,*..........@>,,,,,,,,,,,,,#...............................       ",
"        ...........................................*,,,,,,,,,,,#...........o:,,,,,,,,,,,,:...............................       ",
"        ...........................................:,,,,,,,,,,,o............O,,,,,,,,,,,,,o..............................       ",
"        ..........................................o,,,,,,,,,,,:..............*,,,,,,,,,,,,+..............................       ",
"        ..........................................#,,,,,,,,,,,*..............#,,,,,,,,,,,,&...............................      ",
"        ..........................................*,,,,,,,,,,,#..............+,,,,,,,,,,,,&...............................      ",
"       ...........................................:,,,,,,,,,,,o..............&,,,,,,,,,,,,+...............................      ",
"       ..........................................o,,,,,,,,,,,:...............;,,,,,,,,,,,,O...............................      ",
"       ..........................................#,,,,,,,,,,,*..............@,,,,,,,,,,,,>................................      ",
"       ..........................................*,,,,,,,,,,,;$o...........+>,,,,,,,,,,,,=................................      ",
"       ..........................................:,,,,,,,,,,,,,,:=&+O...o#-,,,,,,,,,,,,,,@................................      ",
"       .........................................o,,,,,,,,,,,,,,,,,,,,,,,,,,,,,,,,,,,,,,,;..................................     ",
"       .........................................#,,,,,,,,,,,,,,,,,,,,,,,,,,,,,,,,,,,,,,,O..................................     ",
"       .........................................*,,,,,,,,,,,,,,,,,,,,,,,,,,,,,,,,,,,,,,#...................................     ",
"       .........................................:,,,,,,,,,,,,,,,,,,,,,,,,,,,,,,,,,,,,>@....................................     ",
"       ........................................o,,,,,,,,,,,,,,,,,,,,,,,,,,,,,,,,,,,>&X.....................................     ",
"       ........................................#,,,,,,,,,,,*o#*;,,,,,,,,,,,,,,,,,,>O.......................................     ",
"       ........................................*,,,,,,,,,,,#....o#=>,,,,,,,,,,,,,,,,&......................................     ",
"       ........................................:,,,,,,,,,,,o.......X#-,,,,,,,,,,,,,,,*X....................................     ",
"       .......................................o,,,,,,,,,,,:...........+-,,,,,,,,,,,,,,*...................................      ",
"       .......................................#,,,,,,,,,,,*.............$>,,,,,,,,,,,,,&..................................      ",
"       .......................................*,,,,,,,,,,,#..............O>,,,,,,,,,,,,>X.................................      ",
"       .......................................:,,,,,,,,,,,o...............@,,,,,,,,,,,,,$.................................      ",
"       ......................................o,,,,,,,,,,,:.................-,,,,,,,,,,,,-.................................      ",
"       ......................................#,,,,,,,,,,,*.................#,,,,,,,,,,,,,.................................      ",
"        .............................o:*#o..X:,,,,,,,,,,,#.................+,,,,,,,,,,,,,.................................      ",
"        .............................&,,,,:->,,,,,,,,,,,,o.................@,,,,,,,,,,,,,................................       ",
"        ............................X>,,,,,,,,,,,,,,,,,,:..................*,,,,,,,,,,,,,................................       ",
"        ............................$,,,,,,,,,,,,,,,,,,,*.................X>,,,,,,,,,,,,;................................       ",
"         ...........................:,,,,,,,,,,,,,,,,,,,&X................=,,,,,,,,,,,,,*................................       ",
"         ..........................@,,,,,,,,,,,,,,,,,,,,,,;&@X..........o-,,,,,,,,,,,,,,#...............................        ",
"         ..........................-,,,,,,,,,,,,,,,,,,,,,,,,,,:-&&+++#&;,,,,,,,,,,,,,,,,X...............................        ",
"         ..........................-,,,,,,,,,,,,,,,,,,,,,,,,,,,,,,,,,,,,,,,,,,,,,,,,,,,=................................        ",
"          ...........................+&-,,,,,,,,,,,,,,,,,,,,,,,,,,,,,,,,,,,,,,,,,,,,,,,+................................        ",
"          ...............................+&-,,,,,,,,,,,,,,,,,,,,,,,,,,,,,,,,,,,,,,,,,,-................................         ",
"          ...................................+&:,,,,,,,,,,,,,,,,,,,,,,,,,,,,,,,,,,,,,,O................................         ",
"           ....................................&,,,,,,,,,,,,,,,,,,,,,,,,,,,,,,,,,,,,,#................................          ",
"           ....................................;,,,,,,-:,,,,,,,,,,,,,,,,,,,,,,,,,,,,&.................................          ",
"            ..................................X,,,,,,,..O$=,,,,,,,,,,,,,,,,,,,,,,,>#..................................          ",
"            ..................................@,,,,,,-....O,,,,,,,,,,,,,,,,,,,,,,*o..................................           ",
"             .................................&,,,,,,&....$,,,,,,*$*-:,,,,,,,:=$X....................................           ",
"             .................................;,,,,,,+....=,,,,,,@......o++.........................................            ",
"              ...............................X,,,,,,,.....>,,,,,,X..................................................            ",
"              ...............................@,,,,,,-....O,,,,,,;..................................................             ",
"               ..............................&,,,,,,&....$,,,,,,&..................................................             ",
"               ..............................;,,,,,,+....=,,,,,,@.................................................              ",
"                .............................$=>,,,,.....>,,,,,,X................................................               ",
"                 ...............................O$==....O,,,,,,;.................................................               ",
"                 .......................................$,,,,,,&................................................                ",
"                  ......................................o$=>,,,@...............................................                 ",
"                   .........................................O$=X...............................................                 ",
"                    ..........................................................................................                  ",
"                    .........................................................................................                   ",
"                     .......................................................................................                    ",
"                      .....................................................................................                     ",
"                       ...................................................................................                      ",
"                        .................................................................................                       ",
"                         ...............................................................................                        ",
"                          .............................................................................                         ",
"                           ...........................................................................                          ",
"                             ........................................................................                           ",
"                              .....................................................................                             ",
"                               ...................................................................                              ",
"                                 ................................................................                               ",
"                                  .............................................................                                 ",
"                                    .........................................................                                   ",
"                                      .....................................................                                     ",
"                                        .................................................                                       ",
"                                          .............................................                                         ",
"                                             ........................................                                           ",
"                                                ..................................                                              ",
"                                                   ...........................                                                  ",
"                                                         ................                                                       ",
"                                                                                                                                ",
"                                                                                                                                ",
"                                                                                                                                ",
"                                                                                                                                ",
"                                                                                                                                ",
"                                                                                                                                "
};
