/* XPM */
static char *_9a877e983374792c1074d359eebeb843TonNgIldfaLtb0R[] = {
/* columns rows colors chars-per-pixel */
"64 64 18 1 ",
"  c None",
". c #C0C0C0",
"X c gray77",
"o c #C8C8C8",
"O c gray80",
"+ c #D0D0D0",
"@ c gray83",
"# c #D8D8D8",
"$ c gainsboro",
"% c gray88",
"& c gray89",
"* c #E7E7E7",
"= c gray92",
"- c #EFEFEF",
"; c #F3F3F3",
": c gray97",
"> c #FBFBFB",
", c white",
/* pixels */
"                                                                ",
"                                                                ",
"                                                                ",
"                                                                ",
"                                                                ",
"                          ............                          ",
"                       ..................                       ",
"                    ........................                    ",
"                  ............................                  ",
"                 ..............................                 ",
"               ..................................               ",
"              ....................................              ",
"             ......................................             ",
"            ........................................            ",
"           ...................O&@X...................           ",
"          ....................&,,,..+X................          ",
"          ....................-,,-.X,,;O..............          ",
"         ..............oo.....,,,&.@,,,O...............         ",
"        ...............*,:*#X+,,,+.&,,>.................        ",
"        ...............:,,,,,,,,,..;,,=.................        ",
"       ...............o,,,,,,,,,,,-,,,$..................       ",
"       ...............X@&:,,,,,,,,,,,,=O.................       ",
"       ..................X:,,,,,,,,,,,,,-O................      ",
"      ....................-,,,,,;,,,,,,,,,#...............      ",
"      ....................,,,,,;..@*,,,,,,,@..............      ",
"      ...................+,,,,,&....O:,,,,,:..............      ",
"     ....................&,,,,,@.....O,,,,,,o..............     ",
"     ....................-,,,,,X......,,,,,,+..............     ",
"     ....................,,,,,;......o,,,,,,X..............     ",
"     ...................+,,,,,:$O...O;,,,,,:...............     ",
"     ...................&,,,,,,,,,,,,,,,,,,#...............     ",
"     ...................-,,,,,,,,,,,,,,,,,*................     ",
"     ...................,,,,,>-,,,,,,,,,>#.................     ",
"     ..................+,,,,,&..@*>,,,,,,-X................     ",
"     ..................&,,,,,@....X&,,,,,,-................     ",
"     ..................-,,,,,X......$,,,,,,+...............     ",
"     ..............oX.X,,,,,;........>,,,,,&...............     ",
"     ..............:,;:,,,,,&........:,,,,,&...............     ",
"      ............@,,,,,,,,,@.......+,,,,,,$...............     ",
"      ............-,,,,,,,,,,;&#+++&>,,,,,,O..............      ",
"      ............&-,,,,,,,,,,,,,,,,,,,,,,:...............      ",
"      ...............+&-,,,,,,,,,,,,,,,,,,@...............      ",
"       ................+,,,:,,,,,,,,,,,,,*...............       ",
"       ................&,,,.X:,,,,,,,,,:$................       ",
"        ...............-,,-.X,,,$O+$&@O.................        ",
"        ...............>,,&.@,,,O.......................        ",
"         .............o,,,+.&,,>.......................         ",
"         ...............+&..;,,=.......................         ",
"          ..................+&-$......................          ",
"           ..........................................           ",
"            ........................................            ",
"             ......................................             ",
"              ....................................              ",
"               ..................................               ",
"                ................................                ",
"                  ............................                  ",
"                    ........................                    ",
"                      ....................                      ",
"                         ..............                         ",
"                                                                ",
"                                                                ",
"                                                                ",
"                                                                ",
"                                                                "
};
