/* XPM */
static char *e4f87d01b2e04eadbe3712a15134de994buWLFmXhpdfki5J[] = {
/* columns rows colors chars-per-pixel */
"16 16 17 1 ",
"  c None",
". c #C0C0C0",
"X c gray77",
"o c #C8C8C8",
"O c gray80",
"+ c #D0D0D0",
"@ c gray83",
"# c #D8D8D8",
"$ c gray88",
"% c gray89",
"& c #E7E7E7",
"* c gray92",
"= c #EFEFEF",
"- c #F3F3F3",
"; c gray97",
": c #FBFBFB",
"> c white",
/* pixels */
"                ",
"     ......     ",
"   ..........   ",
"  .....@#+....  ",
"  ...+&=*>....  ",
" ....O->>:%.... ",
" .....=>o*>+... ",
" .....>:%->O... ",
" ....+>=&>;.... ",
" ...#;>@.->+... ",
" ...#=>>>>:.... ",
"  ...#=;&%o.... ",
"  ...Xo%......  ",
"   ..........   ",
"    ........    ",
"                "
};
