/* XPM */
static char *_3154f8655cf444f9b13faa2975fe94c9PZYYafobrwy6iXU[] = {
/* columns rows colors chars-per-pixel */
"32 32 18 1 ",
"  c None",
". c #C0C0C0",
"X c gray77",
"o c #C8C8C8",
"O c gray80",
"+ c #D0D0D0",
"@ c gray83",
"# c #D8D8D8",
"$ c gainsboro",
"% c gray88",
"& c gray89",
"* c #E7E7E7",
"= c gray92",
"- c #EFEFEF",
"; c #F3F3F3",
": c gray97",
"> c #FBFBFB",
", c white",
/* pixels */
"                                ",
"            ..........          ",
"         ...............        ",
"        ..................      ",
"       ....................     ",
"      ......................    ",
"     ..........X>-.+.........   ",
"    ...........@,;o,,.........  ",
"   ........o,;&=,&#,-.........  ",
"   ........#,,,,,::,&.......... ",
"   .........o=,,,,,,,*X........ ",
"  ...........&,,;&;,,,>o....... ",
"  ...........;,,&..#,,,&........",
"  ..........X,,,@...>,,-........",
"  ..........@,,,&++&,,,&........",
" ...........&,,,,,,,,,>o........",
" ...........;,,=&:,,,,+.........",
"  .........X,,,@..+>,,>X........",
"  .......O#&,,,X...#,,,+........",
"  .......*,,,,:X...=,,,+........",
"  .......;,,,,,,:-:,,,,X....... ",
"   .......X@:,,,,,,,,,&........ ",
"   .........,,O>,;>,;&......... ",
"   ........+,;o,,.............  ",
"    .......o&$#,-.............  ",
"     ..........++............   ",
"      ......................    ",
"       ....................     ",
"        ..................      ",
"         ...............        ",
"            ..........          ",
"                                "
};
