<?xml version="1.0" encoding="utf-8"?>
<!-- Generator: Adobe Illustrator 24.0.1, SVG Export Plug-In . SVG Version: 6.00 Build 0)  -->
<svg version="1.1"
	 id="svg2" xmlns:cc="http://creativecommons.org/ns#" xmlns:dc="http://purl.org/dc/elements/1.1/" xmlns:inkscape="http://www.inkscape.org/namespaces/inkscape" xmlns:rdf="http://www.w3.org/1999/02/22-rdf-syntax-ns#" xmlns:sodipodi="http://sodipodi.sourceforge.net/DTD/sodipodi-0.dtd" xmlns:svg="http://www.w3.org/2000/svg"
	 xmlns="http://www.w3.org/2000/svg" xmlns:xlink="http://www.w3.org/1999/xlink" x="0px" y="0px" viewBox="0 0 1024 1024"
	 style="enable-background:new 0 0 1024 1024;" xml:space="preserve">
<style type="text/css">
	.st0{fill:#C0C0C0;}
	.st1{fill:#FFFFFF;}
</style>
<g>
	<path class="st0" d="M946.6,620.4c-59.8,240-303,386.1-543.1,326.3c-240-59.8-386-303-326.2-543C137.2,163.6,380.3,17.5,620.3,77.3
		C860.4,137.2,1006.5,380.3,946.6,620.4L946.6,620.4z"/>
	<path class="st1" d="M709.6,448.2c8.9-59.6-36.5-91.7-98.6-113.1l20.1-80.8L582,242.1l-19.6,78.6c-12.9-3.2-26.2-6.3-39.4-9.3
		l19.7-79.2l-49.1-12.3l-20.1,80.7c-10.7-2.4-21.2-4.8-31.4-7.4l0.1-0.3l-67.8-16.9l-13.1,52.5c0,0,36.5,8.4,35.7,8.9
		c19.9,5,23.5,18.1,22.9,28.6l-23,92.4l-32.2,128.9c-2.4,6-8.6,15.1-22.5,11.7c0.5,0.7-35.7-8.9-35.7-8.9L282,646.5l64,15.9
		c11.9,3,23.6,6.1,35,9l-20.3,81.7l49.1,12.3l20.2-80.8c13.4,3.6,26.4,7,39.2,10.2L449,775.3l49.2,12.3l20.3-81.5
		c83.8,15.9,146.9,9.5,173.4-66.3c21.4-61.1-1.1-96.3-45.2-119.2C678.9,512.9,703.1,491.8,709.6,448.2L709.6,448.2z M597.2,605.7
		c-15.2,61.1-118,28.1-151.3,19.8l27-108.2C506.2,525.5,613.1,542,597.2,605.7L597.2,605.7z M612.4,447.3
		c-13.9,55.5-99.4,27.3-127.2,20.4l24.5-98.2C537.5,376.4,626.9,389.4,612.4,447.3z"/>
</g>
</svg>
